<svg width="36" height="34" viewBox="0 0 36 34" fill="none" xmlns="http://www.w3.org/2000/svg">
<g filter="url(#filter0_d_75_3665)">
<path d="M25.1693 1.8982C18.8123 -1.83468 10.4867 0.108716 6.61034 6.23025C2.73394 12.3518 4.75203 20.369 11.109 24.1018C11.4632 24.3097 11.8236 24.4998 12.1889 24.6729C12.1948 24.6756 12.2008 24.6785 12.2068 24.6812C14.0948 25.5721 16.1158 26 18.1169 26C22.6738 26 27.1269 23.7825 29.668 19.7697C33.5444 13.6482 31.5262 5.63108 25.1693 1.8982ZM14.8631 2.38042L14.6983 3.01097L11.1774 4.91912L10.4594 4.74515C11.7151 3.65899 13.2108 2.85101 14.8631 2.38042ZM11.6188 16.3804L11.4294 16.5822C10.8402 17.2101 10.5874 18.0486 10.7355 18.8827L11.2693 21.8864C9.11407 20.3469 7.59869 18.1519 6.95876 15.6097C6.4755 13.6899 6.53061 11.726 7.09608 9.88076L10.4108 11.7075C10.7394 11.8886 10.9044 12.262 10.812 12.6156C10.5731 13.5295 10.832 14.4839 11.5044 15.1685L11.6057 15.2716C11.9078 15.5792 11.9135 16.0662 11.6188 16.3804ZM18.6334 24.0708L18.4268 22.8569L18.5932 22.7859C19.1938 22.5296 19.8952 22.7246 20.2612 23.2498L20.6516 23.8099C19.9813 23.9547 19.3065 24.0416 18.6334 24.0708ZM27.9612 18.7675C26.6902 20.7748 24.8342 22.307 22.6276 23.202C22.6106 23.1704 22.5919 23.1393 22.5708 23.109L21.9211 22.1769C21.0131 20.8741 19.2728 20.3901 17.7831 21.026L16.9104 21.3986C16.4945 21.5762 16.2556 22.0018 16.3292 22.4341L16.5928 23.983C15.5392 23.8458 14.5071 23.5658 13.5215 23.1476L12.706 18.558C12.6618 18.3095 12.7371 18.0597 12.9127 17.8727L13.1021 17.6709C14.0916 16.6163 14.0723 14.9814 13.0582 13.9489L12.9569 13.8458C12.7566 13.6418 12.6795 13.3576 12.7506 13.0853C13.0608 11.8983 12.5069 10.6447 11.4037 10.0367L7.83642 8.07076C7.9836 7.78659 8.14333 7.50673 8.31704 7.23241C8.50831 6.93047 8.71313 6.63949 8.93002 6.35948L11.0762 6.87953C11.1566 6.89903 11.2385 6.90868 11.3201 6.90868C11.4905 6.90868 11.6596 6.86674 11.8103 6.78498L16.0529 4.48571C16.2919 4.35621 16.4651 4.1379 16.532 3.88181L16.9989 2.09508C17.0095 2.05445 17.0163 2.01383 17.0213 1.9733C17.4012 1.93684 17.7812 1.9176 18.1601 1.9176C20.2473 1.9176 22.301 2.46862 24.1283 3.54168C24.3411 3.6666 24.5482 3.79803 24.7505 3.93453C24.7492 3.9359 24.7478 3.93696 24.7466 3.93823L23.1184 5.65195L18.8274 5.81237C18.4955 5.82476 18.1916 5.99523 18.0166 6.26711L16.1474 9.17175C15.9303 9.50909 15.9505 9.94007 16.1981 10.2572L17.3813 11.7724C17.6262 12.0861 17.76 12.475 17.7579 12.8675L17.7473 14.8429C17.7431 15.6243 18.0958 16.362 18.7149 16.867C19.2137 17.2739 19.8387 17.4916 20.4809 17.4916C20.6359 17.4916 20.7919 17.4789 20.9473 17.4532L23.226 17.0756C24.0654 16.9366 24.8451 16.5274 25.4215 15.9236C25.7655 15.5633 26.2347 15.3562 26.7427 15.3407C27.2501 15.3243 27.7326 15.5028 28.0998 15.8412L28.7407 16.4318C28.8243 16.5089 28.9186 16.5681 29.0183 16.6118C28.7499 17.3563 28.3975 18.0787 27.9612 18.7675ZM29.5422 14.5059L29.4821 14.4504C28.7237 13.7515 27.7284 13.3842 26.6788 13.4166C25.6295 13.4489 24.6604 13.8764 23.9499 14.6207C23.6708 14.913 23.2934 15.1111 22.887 15.1784L20.6083 15.556C20.3133 15.6048 20.105 15.478 20.0069 15.3981C19.9089 15.3182 19.7447 15.141 19.7463 14.8529L19.7569 12.8775C19.7612 12.0668 19.4849 11.2635 18.979 10.6156L18.2067 9.62644L19.436 7.7161L23.613 7.56C23.8798 7.55005 24.1314 7.43772 24.3117 7.24795L26.2217 5.23778C26.243 5.21543 26.2625 5.19222 26.2812 5.16856C27.7624 6.59145 28.8141 8.38251 29.3195 10.3903C29.6641 11.7594 29.7348 13.1509 29.5422 14.5059Z" fill="white"/>
</g>
<defs>
<filter id="filter0_d_75_3665" x="0.63916" y="0" width="35" height="34" filterUnits="userSpaceOnUse" color-interpolation-filters="sRGB">
<feFlood flood-opacity="0" result="BackgroundImageFix"/>
<feColorMatrix in="SourceAlpha" type="matrix" values="0 0 0 0 0 0 0 0 0 0 0 0 0 0 0 0 0 0 127 0" result="hardAlpha"/>
<feOffset dy="4"/>
<feGaussianBlur stdDeviation="2"/>
<feComposite in2="hardAlpha" operator="out"/>
<feColorMatrix type="matrix" values="0 0 0 0 0 0 0 0 0 0 0 0 0 0 0 0 0 0 0.25 0"/>
<feBlend mode="normal" in2="BackgroundImageFix" result="effect1_dropShadow_75_3665"/>
<feBlend mode="normal" in="SourceGraphic" in2="effect1_dropShadow_75_3665" result="shape"/>
</filter>
</defs>
</svg>
